<svg width="14" height="16" viewBox="0 0 14 16" fill="none" xmlns="http://www.w3.org/2000/svg">
<g style="mix-blend-mode:hard-light" opacity="0.76" filter="url(#filter0_d_0_70)">
<path d="M8.44596 3.57019C8.75404 3.20248 8.9677 2.70062 8.9677 2.19379C8.9677 2.12422 8.96273 2.05466 8.94783 2C8.4559 2.01988 7.85963 2.32795 7.50186 2.74534C7.2236 3.06335 6.96522 3.57019 6.96522 4.07702C6.96522 4.15652 6.97516 4.23106 6.98509 4.2559C7.01491 4.26087 7.0646 4.27081 7.11429 4.27081C7.56149 4.27081 8.11801 3.97267 8.44596 3.57019ZM8.79876 4.37516C8.05342 4.37516 7.45217 4.82733 7.0646 4.82733C6.65217 4.82733 6.11553 4.40497 5.46957 4.40497C4.24224 4.40497 3 5.41863 3 7.32671C3 8.51925 3.45714 9.7764 4.02857 10.5863C4.51553 11.272 4.94286 11.8335 5.55404 11.8335C6.16522 11.8335 6.43354 11.4311 7.18385 11.4311C7.95404 11.4311 8.12298 11.8236 8.79876 11.8236C9.4646 11.8236 9.90683 11.2124 10.3242 10.6112C10.7963 9.9205 10.9901 9.24969 11 9.21491C10.9602 9.20497 9.68323 8.68323 9.68323 7.22733C9.68323 5.96522 10.687 5.39876 10.7416 5.35404C10.0857 4.40497 9.07702 4.37516 8.79876 4.37516Z" fill="black"/>
</g>
<defs>
<filter id="filter0_d_0_70" x="0.237143" y="0.618571" width="13.5257" height="15.3593" filterUnits="userSpaceOnUse" color-interpolation-filters="sRGB">
<feFlood flood-opacity="0" result="BackgroundImageFix"/>
<feColorMatrix in="SourceAlpha" type="matrix" values="0 0 0 0 0 0 0 0 0 0 0 0 0 0 0 0 0 0 127 0" result="hardAlpha"/>
<feOffset dy="1.38143"/>
<feGaussianBlur stdDeviation="1.38143"/>
<feColorMatrix type="matrix" values="0 0 0 0 0 0 0 0 0 0 0 0 0 0 0 0 0 0 0.15 0"/>
<feBlend mode="normal" in2="BackgroundImageFix" result="effect1_dropShadow_0_70"/>
<feBlend mode="normal" in="SourceGraphic" in2="effect1_dropShadow_0_70" result="shape"/>
</filter>
</defs>
</svg>
